<?xml version="1.0" standalone="no"?><svg xmlns="http://www.w3.org/2000/svg" viewBox="0 0 1440 320"><path fill="#f0f4ff" fill-opacity="1" d="M0,256L40,261.3C80,267,160,277,240,272C320,267,400,245,480,224C560,203,640,181,720,170.7C800,160,880,160,960,154.7C1040,149,1120,139,1200,117.3C1280,96,1360,64,1400,48L1440,32L1440,320L1400,320C1360,320,1280,320,1200,320C1120,320,1040,320,960,320C880,320,800,320,720,320C640,320,560,320,480,320C400,320,320,320,240,320C160,320,80,320,40,320L0,320Z"></path></svg>